<svg xmlns="http://www.w3.org/2000/svg" width="186.157" height="119.903" viewBox="0 0 186.157 119.903"><g title="REVUE STARLIGHT"><path d="M721.387,500.426c0-8.679,8.069-11.771,15.621-11.771s15.621,3.092,15.621,11.771v12.923L825.71,524.1V476.9L757.527,490.63c-3.414-5.516-10.1-9.614-20.519-9.614s-17.1,4.1-20.519,9.614L648.3,476.9v47.2l73.082-10.747Zm38.88-2.555,57.8-11.642v29.023l-57.8-8.5Zm-46.519,8.881-57.8,8.5V486.229l57.8,11.642ZM656.375,589.56a3.4,3.4,0,0,0,2.312-3.573c0-3.592-2.847-4.185-6.4-4.185h-3.745v14.675h3.095V590.9h1.471c.937,0,1.4.326,2.083,1.758.5,1.033,1.242,2.828,1.586,3.822h3.5c-.688-1.662-2.007-4.6-2.58-5.675A3.194,3.194,0,0,0,656.375,589.56Zm-2.522-1.262h-2.217v-3.744h.994c1.567,0,2.847.229,2.847,1.8A1.761,1.761,0,0,1,653.853,588.3Zm11.448,5.351h5.465v2.828h-8.675V581.8h8.331v2.828H665.3v3.038h4.433v2.714H665.3Zm16.95-11.847h3.516l-5.484,14.675h-2.942L671.819,581.8h3.63l3.459,10.624Zm14.124,0h3.286v9.86c0,3.764-3.019,5.139-6.134,5.139h-.019c-3.019,0-6.037-1.375-6.037-5.139V581.8h3.286v8.714c0,2.158.554,3.477,2.809,3.477s2.809-1.319,2.809-3.477Zm9.9,11.847h5.465v2.828h-8.675V581.8H711.4v2.828h-5.121v3.038h4.433v2.714h-4.433Zm22.072-1.433c0,3.515-2.388,4.509-4.834,4.509a13.274,13.274,0,0,1-4.72-.86l.822-2.98a9.367,9.367,0,0,0,3.726.955c.745,0,1.682-.286,1.682-1.414,0-.841-.669-1.414-2.484-2.217-2.026-.9-3.44-1.757-3.44-4.242,0-3.63,2.981-4.375,4.777-4.375a10.957,10.957,0,0,1,4.031.688l-.878,2.828a7.064,7.064,0,0,0-2.79-.707c-.783,0-1.892.153-1.892,1.376,0,.744.917,1.2,2.045,1.758C726.417,588.528,728.347,589.521,728.347,592.216ZM729.4,581.8h10.585v2.828h-3.649v11.847h-3.287V584.63H729.4Zm16.3,0-5.617,14.675h3.306l1.108-3.23h5.081l1.148,3.23h3.611L748.719,581.8Zm-.4,8.923,1.8-5.35,1.776,5.35Zm18.592-1.165a3.4,3.4,0,0,0,2.313-3.573c0-3.592-2.847-4.185-6.4-4.185h-3.745v14.675h3.095V590.9h1.472c.936,0,1.394.326,2.082,1.758.5,1.033,1.242,2.828,1.587,3.822h3.5c-.688-1.662-2.007-4.6-2.58-5.675A3.192,3.192,0,0,0,763.892,589.56ZM761.37,588.3h-2.216v-3.744h.993c1.568,0,2.848.229,2.848,1.8A1.761,1.761,0,0,1,761.37,588.3Zm11.488,5.351h5.158v2.828H769.61V581.8h3.248Zm7.319-11.847h3.287v14.675h-3.287Zm12.727,6.172h5.331v8.1a14.018,14.018,0,0,1-4.261.649c-6.075,0-7.6-3.63-7.6-7.413,0-3.879,1.453-7.778,7.567-7.778a16.816,16.816,0,0,1,3.209.345l-.535,2.942a8.4,8.4,0,0,0-2.6-.4c-2.676,0-4.128,1.528-4.128,4.93,0,3.19,1.376,4.547,4.2,4.547a5.626,5.626,0,0,0,1.108-.1v-3.114H792.9Zm17.562-6.172h3.287v14.675h-3.287V590.4h-5.884v6.076h-3.287V581.8h3.287v5.771h5.884Zm5.183,0h10.584v2.828h-3.649v11.847H819.3V584.63h-3.649Zm10.584-35.64h-5.082a25.763,25.763,0,0,0-50.946,0h-7.724a25.763,25.763,0,0,0-50.946,0h-7.724a25.763,25.763,0,0,0-50.947,0h-5.081a3.854,3.854,0,1,0,0,7.707h5.081a25.763,25.763,0,0,0,50.947,0h7.724a25.763,25.763,0,0,0,50.946,0h7.724a25.763,25.763,0,0,0,50.946,0h5.082a3.854,3.854,0,0,0,0-7.707Zm-30.555-14.2a18.084,18.084,0,0,1,17.638,14.2H778.041A18.083,18.083,0,0,1,795.678,531.96Zm-58.67,0a18.083,18.083,0,0,1,17.637,14.2H719.37A18.084,18.084,0,0,1,737.008,531.96Zm-58.671,0a18.084,18.084,0,0,1,17.638,14.2H660.7A18.083,18.083,0,0,1,678.337,531.96Zm0,36.111a18.083,18.083,0,0,1-17.637-14.2h35.275A18.084,18.084,0,0,1,678.337,568.071Zm58.671,0a18.084,18.084,0,0,1-17.638-14.2h35.275A18.083,18.083,0,0,1,737.008,568.071Zm58.67,0a18.083,18.083,0,0,1-17.637-14.2h35.275A18.084,18.084,0,0,1,795.678,568.071Z" transform="translate(-643.929 -476.898)" fill="#e80932"></path></g></svg>